<svg xmlns="http://www.w3.org/2000/svg" viewBox="0 0 1223.9 72.7" enable-background="new 0 0 1223.9 72.7"><g fill="#444"><path d="M26.8 71.1h-26.8v-69.6h26.8c22.4 0 36.5 14.8 36.5 34.8 0 20-14.1 34.8-36.5 34.8zm-10-55.1v40.6h8.7c11.3 0 20.4-7.5 20.4-20.3 0-13.5-9.2-20.3-20.4-20.3h-8.7zM119 42.5h-28.3v14.2h33.8v14.5h-50.6v-69.7h50.6v14.5h-33.8v13.2h28.3v13.3zM140.5 50.5s10 6.7 19.4 6.7c5.2 0 7.7-2.3 7.7-5.8 0-3.6-2.2-5.5-11.9-8.4-14.6-4.3-23-10-23-21.5 0-12.6 8.6-21.6 26.9-21.6 18.9 0 26.2 7.4 26.2 7.4l-9 13.7s-7.3-5.8-17.2-5.8c-5.7 0-7.5 2.2-7.5 5.1 0 3.5 3 4.9 11 7.2 15.4 4.3 24.2 10.3 24.2 21.9 0 12.6-8.5 23.1-26.8 23.1-19.3 0-29.1-9.3-29.1-9.3l9.1-12.7zM214.4 71.1h-16.8v-69.6h16.8v69.6zM258.9 29.7h34.7v10.1c0 19.8-12.9 32.8-33.2 32.8-22.3 0-35.5-16.4-35.5-36.3 0-20 13.5-36.3 35.7-36.3 17.7 0 25.2 8.7 25.2 8.7l-10.1 13s-5.3-5.6-15.3-5.6c-10.3 0-18.1 8.1-18.1 20.2s7.8 20.2 18.1 20.2c9.5 0 14.2-5.6 14.4-12.8v-.8h-15.9v-13.2zM366.2 71.1h-13l-33.4-40.6v40.6h-16.7v-69.6h13l33.4 39.9v-39.9h16.7v69.6zM425.7 42.5h-28.3v14.2h33.8v14.5h-50.6v-69.7h50.6v14.5h-33.8v13.2h28.3v13.3zM473.2 1.5c15.9 0 26.8 9.9 26.8 23.4 0 9.6-5 16.9-13 20.6v1.3l15.7 23.1v1.2h-19.1l-14.6-22.8h-9.7v22.9h-16.8v-69.7h30.7zm-1.2 14.5h-12.8v18h12.9c5.9 0 10.4-3.1 10.4-9 .1-6.1-4.4-9-10.5-9zM599.9 36.1c-1.3 7.9-4.6 15.2-9.3 21.1l14.4 13.9h-22.7l-3.6-3.6c-5.3 3-11.4 4.8-17.6 4.8-20.4 0-28.8-8.8-28.8-21.2 0-9.4 6-14.5 13-18.2l-.9-1c-3.6-3.8-6.1-8.4-6.1-13.5 0-10.2 8.2-18.3 22.9-18.3 14.2 0 22.9 7.5 22.9 17.7 0 10.3-6.7 15.4-14.2 19.1l9.4 9.2c2.4-4.1 4.1-8.8 4.8-13.6l15.8 3.6zm-31.6 20.5l-12.5-13c-2.9 2-4.9 4.2-4.9 7.2 0 3.9 3.5 7.2 10.6 7.2 2.3 0 4.6-.5 6.8-1.4zm-8.8-29.7c4.6-2 8.1-4.1 8.1-7.3s-2-5.9-6.4-5.9c-4.6 0-6.5 2.7-6.5 5.8 0 2.2 1.5 4.2 4.8 7.4zM661.4 71.1h-26.8v-69.6h26.8c22.4 0 36.5 14.8 36.5 34.8.1 20-14.1 34.8-36.5 34.8zm-10-55.1v40.6h8.7c11.3 0 20.4-7.5 20.4-20.3 0-13.5-9.2-20.3-20.4-20.3h-8.7zM753.6 42.5h-28.3v14.2h33.8v14.5h-50.6v-69.7h50.6v14.5h-33.8v13.2h28.3v13.3zM762.1 1.5h18.1l17.6 51.6 17.6-51.6h18.1l-26.5 69.6h-18.3l-26.6-69.6zM884.8 42.5h-28.3v14.2h33.8v14.5h-50.6v-69.7h50.6v14.5h-33.8v13.2h28.3v13.3zM901.5 71.1v-69.6h16.8v55.1h31.1v14.5h-47.9zM952.9 36.3c0-20 14.6-36.3 35.6-36.3 21.2 0 35.8 16.4 35.8 36.3 0 20-14.6 36.4-35.8 36.4-21 0-35.6-16.4-35.6-36.4zm54.1 0c0-12.1-8.1-20.1-18.4-20.1-10.1 0-18.2 8-18.2 20.1 0 12.1 8.1 20.1 18.2 20.1 10.3 0 18.4-8 18.4-20.1zM1092.4 24.9c0 14.3-10.8 23.3-26.8 23.3h-13.9v22.9h-16.8v-69.6h30.7c15.9 0 26.8 9.9 26.8 23.4zm-28-8.9h-12.8v18h12.9c5.9 0 10.4-3.1 10.4-9 .1-6.1-4.3-9-10.5-9zM1147 42.5h-28.3v14.2h33.8v14.5h-50.6v-69.7h50.6v14.5h-33.8v13.2h28.3v13.3zM1194.4 1.5c15.9 0 26.8 9.9 26.8 23.4 0 9.6-5 16.9-13 20.6v1.3l15.7 23.1v1.2h-19.1l-14.5-22.9h-9.7v22.9h-16.8v-69.6h30.6zm-1.1 14.5h-12.8v18h12.9c5.9 0 10.4-3.1 10.4-9 0-6.1-4.4-9-10.5-9z"/></g></svg>